<?xml version="1.0" standalone="no"?>
<!DOCTYPE svg PUBLIC "-//W3C//DTD SVG 20010904//EN"
 "http://www.w3.org/TR/2001/REC-SVG-20010904/DTD/svg10.dtd">
<svg version="1.0" xmlns="http://www.w3.org/2000/svg"
 width="453.000000pt" height="453.000000pt" viewBox="0 0 453.000000 453.000000"
 preserveAspectRatio="xMidYMid meet">
<metadata>
Created by potrace 1.14, written by Peter Selinger 2001-2017
</metadata>
<g transform="translate(0.000000,453.000000) scale(0.100000,-0.100000)"
fill="#000000" stroke="none">
<path d="M1985 4515 c-237 -41 -266 -48 -434 -104 -148 -49 -351 -148 -491
-238 -58 -37 -107 -70 -110 -73 -3 -3 -25 -21 -50 -39 -73 -56 -88 -70 -215
-196 -66 -66 -149 -158 -183 -205 -35 -47 -69 -92 -75 -100 -25 -32 -67 -100
-67 -109 0 -5 -3 -11 -7 -13 -5 -1 -16 -16 -26 -33 -23 -37 -137 -272 -137
-280 0 -4 -6 -21 -14 -38 -51 -113 -114 -354 -145 -557 -11 -77 -7 -495 7
-595 5 -38 15 -92 21 -120 7 -27 22 -88 33 -135 21 -90 32 -125 71 -230 37
-99 70 -175 79 -178 4 -2 8 -10 8 -18 0 -39 178 -322 265 -420 6 -7 26 -31 45
-55 48 -60 184 -195 245 -244 27 -22 61 -50 75 -63 74 -69 391 -253 513 -298
23 -9 51 -20 62 -25 52 -22 186 -63 260 -79 292 -63 450 -77 668 -60 141 10
207 20 402 61 22 4 78 20 125 34 47 15 95 29 108 32 12 3 25 9 28 14 3 5 13 9
22 9 15 0 141 58 257 118 52 27 186 110 195 121 3 3 16 12 28 19 84 47 365
308 439 407 20 27 45 58 54 67 19 19 136 193 169 253 60 107 120 234 141 300
7 22 16 45 20 50 22 30 98 320 120 455 18 111 19 566 1 665 -23 129 -34 180
-48 230 -8 28 -19 68 -25 90 -10 38 -26 83 -71 205 -30 83 -140 299 -165 328
-7 7 -13 17 -13 21 0 8 -102 155 -147 210 -86 107 -209 233 -298 307 -33 27
-66 55 -73 62 -27 25 -238 160 -312 200 -143 77 -369 167 -480 192 -259 58
-358 70 -585 69 -127 0 -242 -6 -290 -14z"/>
</g>
</svg>
